# xmcd
# 
# Track frame offsets:
#     150
#     21701
#     38454
#     64925
#     91255
#     112689
#     138181
#     163579
# 
# Disc length: 2456
# 
# Revision: 1
# Processed by: cddbd v1.5.2PL0 Copyright (c) Steve Scherf et al.
# Submitted via: fre:ac v1.0.17
# 
DISCID=5d099608
DTITLE=Adrian Reiter Quartet - Pick Up
DYEAR=2007
DGENRE=Jazz
TTITLE0=Birthmark
TTITLE1=Freeway
TTITLE2=Pick Up
TTITLE3=Secret Groove
TTITLE4=2 Drop In
TTITLE5=Bela
TTITLE6=So Peaceful
TTITLE7=Espresso
EXTD=YEAR: 2007
EXTT0=
EXTT1=
EXTT2=
EXTT3=
EXTT4=
EXTT5=
EXTT6=
EXTT7=
PLAYORDER=
